<svg xmlns="http://www.w3.org/2000/svg" style="display:none">

  <!-- bf-cerveja: copo de cerveja com espuma -->
  <symbol id="bf-cerveja" viewBox="0 0 24 24" fill="none" stroke="currentColor" stroke-width="1.8" stroke-linecap="round" stroke-linejoin="round">
    <path d="M5 3h11l1 2H5z"/>
    <rect x="4" y="5" width="12" height="15" rx="1"/>
    <path d="M16 8h3a1 1 0 0 1 1 1v5a1 1 0 0 1-1 1h-3"/>
    <line x1="8" y1="10" x2="8" y2="17"/>
    <line x1="12" y1="10" x2="12" y2="17"/>
  </symbol>

  <!-- bf-chopp: caneca de chopp -->
  <symbol id="bf-chopp" viewBox="0 0 24 24" fill="none" stroke="currentColor" stroke-width="1.8" stroke-linecap="round" stroke-linejoin="round">
    <path d="M6 2h10l1.5 2H5z"/>
    <path d="M5 4h12l-1.5 17H6.5z"/>
    <path d="M16 7h3.5a1 1 0 0 1 1 1v5a1 1 0 0 1-1 1H16"/>
    <line x1="9" y1="9" x2="9" y2="18"/>
    <line x1="13" y1="9" x2="13" y2="18"/>
  </symbol>

  <!-- bf-garrafa: garrafa de cerveja -->
  <symbol id="bf-garrafa" viewBox="0 0 24 24" fill="none" stroke="currentColor" stroke-width="1.8" stroke-linecap="round" stroke-linejoin="round">
    <rect x="9" y="2" width="6" height="3" rx="0.5"/>
    <path d="M10 5h4l2 4v10a2 2 0 0 1-2 2H10a2 2 0 0 1-2-2V9z"/>
    <line x1="8" y1="14" x2="16" y2="14"/>
  </symbol>

  <!-- bf-barril: barril de chope -->
  <symbol id="bf-barril" viewBox="0 0 24 24" fill="none" stroke="currentColor" stroke-width="1.8" stroke-linecap="round" stroke-linejoin="round">
    <ellipse cx="12" cy="6" rx="8" ry="3"/>
    <ellipse cx="12" cy="18" rx="8" ry="3"/>
    <line x1="4" y1="6" x2="4" y2="18"/>
    <line x1="20" y1="6" x2="20" y2="18"/>
    <line x1="12" y1="3" x2="12" y2="21"/>
    <line x1="4" y1="12" x2="20" y2="12"/>
  </symbol>

  <!-- bf-lata: lata de cerveja -->
  <symbol id="bf-lata" viewBox="0 0 24 24" fill="none" stroke="currentColor" stroke-width="1.8" stroke-linecap="round" stroke-linejoin="round">
    <ellipse cx="12" cy="5" rx="5" ry="2"/>
    <ellipse cx="12" cy="19" rx="5" ry="2"/>
    <line x1="7" y1="5" x2="7" y2="19"/>
    <line x1="17" y1="5" x2="17" y2="19"/>
    <path d="M10 3.5l1.5-1.5h1l1.5 1.5"/>
    <line x1="12" y1="3" x2="12" y2="5"/>
  </symbol>

  <!-- bf-copo: copo americano -->
  <symbol id="bf-copo" viewBox="0 0 24 24" fill="none" stroke="currentColor" stroke-width="1.8" stroke-linecap="round" stroke-linejoin="round">
    <path d="M5 3h14l-3 18H8z"/>
    <line x1="6" y1="9" x2="18" y2="9"/>
  </symbol>

  <!-- bf-espuma: espuma de cerveja -->
  <symbol id="bf-espuma" viewBox="0 0 24 24" fill="none" stroke="currentColor" stroke-width="1.8" stroke-linecap="round" stroke-linejoin="round">
    <circle cx="7" cy="10" r="3"/>
    <circle cx="12" cy="8" r="4"/>
    <circle cx="17" cy="10" r="3"/>
    <path d="M4 13h16v7a1 1 0 0 1-1 1H5a1 1 0 0 1-1-1z"/>
  </symbol>

  <!-- bf-lupulo: planta de lúpulo -->
  <symbol id="bf-lupulo" viewBox="0 0 24 24" fill="none" stroke="currentColor" stroke-width="1.8" stroke-linecap="round" stroke-linejoin="round">
    <path d="M12 22V10"/>
    <path d="M12 14c0 0-3-2-5-5 3 0 5 2 5 2"/>
    <path d="M12 10c0 0 3-2 5-5-3 0-5 2-5 2"/>
    <ellipse cx="12" cy="6" rx="3" ry="4"/>
    <line x1="12" y1="2" x2="12" y2="10"/>
  </symbol>

  <!-- bf-cevada: grão de cevada -->
  <symbol id="bf-cevada" viewBox="0 0 24 24" fill="none" stroke="currentColor" stroke-width="1.8" stroke-linecap="round" stroke-linejoin="round">
    <line x1="12" y1="22" x2="12" y2="6"/>
    <path d="M12 18c-2-1-4-3-4-5s2-3 4-2"/>
    <path d="M12 18c2-1 4-3 4-5s-2-3-4-2"/>
    <path d="M12 12c-2-1-4-3-4-5s2-3 4-2"/>
    <path d="M12 12c2-1 4-3 4-5s-2-3-4-2"/>
    <path d="M9 4l3-3 3 3"/>
  </symbol>

  <!-- bf-torneira: torneira de chope -->
  <symbol id="bf-torneira" viewBox="0 0 24 24" fill="none" stroke="currentColor" stroke-width="1.8" stroke-linecap="round" stroke-linejoin="round">
    <rect x="3" y="8" width="8" height="5" rx="1"/>
    <path d="M11 10h4l3-3h2"/>
    <path d="M18 7v6"/>
    <path d="M11 13v5a1 1 0 0 0 1 1h2"/>
    <line x1="13" y1="19" x2="13" y2="22"/>
  </symbol>

  <!-- bf-premio: troféu / prêmio -->
  <symbol id="bf-premio" viewBox="0 0 24 24" fill="none" stroke="currentColor" stroke-width="1.8" stroke-linecap="round" stroke-linejoin="round">
    <path d="M8 21h8M12 17v4"/>
    <path d="M7 4H5a1 1 0 0 0-1 1v2a4 4 0 0 0 4 4h1"/>
    <path d="M17 4h2a1 1 0 0 1 1 1v2a4 4 0 0 1-4 4h-1"/>
    <rect x="7" y="2" width="10" height="12" rx="2"/>
  </symbol>

  <!-- bf-estrela: avaliação / favorito -->
  <symbol id="bf-estrela" viewBox="0 0 24 24" fill="none" stroke="currentColor" stroke-width="1.8" stroke-linecap="round" stroke-linejoin="round">
    <polygon points="12 2 15.09 8.26 22 9.27 17 14.14 18.18 21.02 12 17.77 5.82 21.02 7 14.14 2 9.27 8.91 8.26 12 2"/>
  </symbol>

  <!-- bf-usuario: perfil do usuário -->
  <symbol id="bf-usuario" viewBox="0 0 24 24" fill="none" stroke="currentColor" stroke-width="1.8" stroke-linecap="round" stroke-linejoin="round">
    <circle cx="12" cy="8" r="4"/>
    <path d="M4 20c0-4 3.6-7 8-7s8 3 8 7"/>
  </symbol>

  <!-- bf-cardapio: menu / cardápio -->
  <symbol id="bf-cardapio" viewBox="0 0 24 24" fill="none" stroke="currentColor" stroke-width="1.8" stroke-linecap="round" stroke-linejoin="round">
    <rect x="3" y="2" width="18" height="20" rx="2"/>
    <line x1="7" y1="7" x2="17" y2="7"/>
    <line x1="7" y1="11" x2="17" y2="11"/>
    <line x1="7" y1="15" x2="13" y2="15"/>
  </symbol>

  <!-- bf-pedido: pedido / comanda -->
  <symbol id="bf-pedido" viewBox="0 0 24 24" fill="none" stroke="currentColor" stroke-width="1.8" stroke-linecap="round" stroke-linejoin="round">
    <rect x="4" y="2" width="14" height="20" rx="2"/>
    <path d="M9 2v2h6V2"/>
    <line x1="8" y1="10" x2="16" y2="10"/>
    <polyline points="8 14 10 16 14 12"/>
  </symbol>

  <!-- bf-mesa: mesa de bar -->
  <symbol id="bf-mesa" viewBox="0 0 24 24" fill="none" stroke="currentColor" stroke-width="1.8" stroke-linecap="round" stroke-linejoin="round">
    <rect x="2" y="8" width="20" height="3" rx="1"/>
    <line x1="7" y1="11" x2="5" y2="21"/>
    <line x1="17" y1="11" x2="19" y2="21"/>
    <line x1="12" y1="11" x2="12" y2="21"/>
  </symbol>

  <!-- bf-entrega: entrega / delivery -->
  <symbol id="bf-entrega" viewBox="0 0 24 24" fill="none" stroke="currentColor" stroke-width="1.8" stroke-linecap="round" stroke-linejoin="round">
    <rect x="1" y="3" width="15" height="13" rx="1"/>
    <path d="M16 8h4l3 5v5h-7V8z"/>
    <circle cx="5.5" cy="18.5" r="2.5"/>
    <circle cx="18.5" cy="18.5" r="2.5"/>
  </symbol>

  <!-- bf-pagamento: pagamento / dinheiro -->
  <symbol id="bf-pagamento" viewBox="0 0 24 24" fill="none" stroke="currentColor" stroke-width="1.8" stroke-linecap="round" stroke-linejoin="round">
    <rect x="2" y="5" width="20" height="14" rx="2"/>
    <circle cx="12" cy="12" r="3"/>
    <line x1="2" y1="9" x2="22" y2="9"/>
  </symbol>

  <!-- bf-estoque: caixas / estoque -->
  <symbol id="bf-estoque" viewBox="0 0 24 24" fill="none" stroke="currentColor" stroke-width="1.8" stroke-linecap="round" stroke-linejoin="round">
    <polyline points="21 8 21 21 3 21 3 8"/>
    <rect x="1" y="3" width="22" height="5" rx="1"/>
    <line x1="10" y1="12" x2="14" y2="12"/>
  </symbol>

  <!-- bf-configuracao: engrenagem / config -->
  <symbol id="bf-configuracao" viewBox="0 0 24 24" fill="none" stroke="currentColor" stroke-width="1.8" stroke-linecap="round" stroke-linejoin="round">
    <circle cx="12" cy="12" r="3"/>
    <path d="M19.4 15a1.65 1.65 0 0 0 .33 1.82l.06.06a2 2 0 0 1-2.83 2.83l-.06-.06a1.65 1.65 0 0 0-1.82-.33 1.65 1.65 0 0 0-1 1.51V21a2 2 0 0 1-4 0v-.09A1.65 1.65 0 0 0 9 19.4a1.65 1.65 0 0 0-1.82.33l-.06.06a2 2 0 0 1-2.83-2.83l.06-.06A1.65 1.65 0 0 0 4.68 15a1.65 1.65 0 0 0-1.51-1H3a2 2 0 0 1 0-4h.09A1.65 1.65 0 0 0 4.6 9a1.65 1.65 0 0 0-.33-1.82l-.06-.06a2 2 0 0 1 2.83-2.83l.06.06A1.65 1.65 0 0 0 9 4.68a1.65 1.65 0 0 0 1-1.51V3a2 2 0 0 1 4 0v.09a1.65 1.65 0 0 0 1 1.51 1.65 1.65 0 0 0 1.82-.33l.06-.06a2 2 0 0 1 2.83 2.83l-.06.06A1.65 1.65 0 0 0 19.4 9a1.65 1.65 0 0 0 1.51 1H21a2 2 0 0 1 0 4h-.09a1.65 1.65 0 0 0-1.51 1z"/>
  </symbol>

  <!-- bf-alerta: aviso / alerta -->
  <symbol id="bf-alerta" viewBox="0 0 24 24" fill="none" stroke="currentColor" stroke-width="1.8" stroke-linecap="round" stroke-linejoin="round">
    <path d="M10.29 3.86L1.82 18a2 2 0 0 0 1.71 3h16.94a2 2 0 0 0 1.71-3L13.71 3.86a2 2 0 0 0-3.42 0z"/>
    <line x1="12" y1="9" x2="12" y2="13"/>
    <line x1="12" y1="17" x2="12.01" y2="17"/>
  </symbol>

  <!-- bf-sucesso: check / sucesso -->
  <symbol id="bf-sucesso" viewBox="0 0 24 24" fill="none" stroke="currentColor" stroke-width="1.8" stroke-linecap="round" stroke-linejoin="round">
    <circle cx="12" cy="12" r="10"/>
    <polyline points="9 12 11 14 15 10"/>
  </symbol>

  <!-- bf-busca: lupa / busca -->
  <symbol id="bf-busca" viewBox="0 0 24 24" fill="none" stroke="currentColor" stroke-width="1.8" stroke-linecap="round" stroke-linejoin="round">
    <circle cx="11" cy="11" r="8"/>
    <line x1="21" y1="21" x2="16.65" y2="16.65"/>
  </symbol>

  <!-- bf-filtro: filtro -->
  <symbol id="bf-filtro" viewBox="0 0 24 24" fill="none" stroke="currentColor" stroke-width="1.8" stroke-linecap="round" stroke-linejoin="round">
    <polygon points="22 3 2 3 10 12.46 10 19 14 21 14 12.46 22 3"/>
  </symbol>

</svg>
