<!-- categoria: Painel Admin -->
<svg width="12" height="12" viewBox="0 0 12 12" fill="none" xmlns="http://www.w3.org/2000/svg">
<g clip-path="url(#clip0_10526_120618)">
<path d="M11.0771 0.857147H0.923096C0.678275 0.857147 0.443482 0.954402 0.270368 1.12752C0.0972544 1.30063 0 1.53542 0 1.78024V11.0112C4.19964e-05 11.0899 0.0201896 11.1672 0.0585299 11.2359C0.0968702 11.3046 0.152131 11.3623 0.219065 11.4037C0.286 11.445 0.362387 11.4685 0.440974 11.472C0.519562 11.4755 0.597741 11.4589 0.668091 11.4237L2.30774 10.6039L3.94739 11.4237C4.01151 11.4558 4.08223 11.4725 4.15393 11.4725C4.22563 11.4725 4.29635 11.4558 4.36047 11.4237L6.00012 10.6039L7.63977 11.4237C7.70389 11.4558 7.77461 11.4725 7.84631 11.4725C7.91802 11.4725 7.98873 11.4558 8.05286 11.4237L9.6925 10.6039L11.3322 11.4237C11.4025 11.4589 11.4807 11.4755 11.5593 11.472C11.6379 11.4685 11.7142 11.445 11.7812 11.4037C11.8481 11.3623 11.9034 11.3046 11.9417 11.2359C11.9801 11.1672 12.0002 11.0899 12.0002 11.0112V1.78024C12.0002 1.53542 11.903 1.30063 11.7299 1.12752C11.5568 0.954402 11.322 0.857147 11.0771 0.857147ZM11.0771 10.2646L9.89905 9.67502C9.83492 9.64293 9.76421 9.62622 9.6925 9.62622C9.6208 9.62622 9.55008 9.64293 9.48596 9.67502L7.84631 10.4954L6.20666 9.67502C6.14254 9.64293 6.07183 9.62622 6.00012 9.62622C5.92842 9.62622 5.8577 9.64293 5.79358 9.67502L4.15393 10.4954L2.51428 9.67502C2.45016 9.64293 2.37944 9.62622 2.30774 9.62622C2.23604 9.62622 2.16532 9.64293 2.1012 9.67502L0.923096 10.2646V1.78024H11.0771V10.2646ZM6.46167 5.01108C6.46167 4.88867 6.5103 4.77127 6.59685 4.68471C6.68341 4.59816 6.80081 4.54953 6.92322 4.54953H9.6925C9.81491 4.54953 9.93231 4.59816 10.0189 4.68471C10.1054 4.77127 10.1541 4.88867 10.1541 5.01108C10.1541 5.13349 10.1054 5.25088 10.0189 5.33744C9.93231 5.424 9.81491 5.47262 9.6925 5.47262H6.92322C6.80081 5.47262 6.68341 5.424 6.59685 5.33744C6.5103 5.25088 6.46167 5.13349 6.46167 5.01108ZM6.46167 6.85727C6.46167 6.73486 6.5103 6.61746 6.59685 6.5309C6.68341 6.44435 6.80081 6.39572 6.92322 6.39572H9.6925C9.81491 6.39572 9.93231 6.44435 10.0189 6.5309C10.1054 6.61746 10.1541 6.73486 10.1541 6.85727C10.1541 6.97968 10.1054 7.09708 10.0189 7.18363C9.93231 7.27019 9.81491 7.31882 9.6925 7.31882H6.92322C6.80081 7.31882 6.68341 7.27019 6.59685 7.18363C6.5103 7.09708 6.46167 6.97968 6.46167 6.85727ZM2.30774 8.24191H5.07703C5.19944 8.24191 5.31683 8.19328 5.40339 8.10673C5.48995 8.02017 5.53857 7.90277 5.53857 7.78036V4.08798C5.53857 3.96557 5.48995 3.84818 5.40339 3.76162C5.31683 3.67506 5.19944 3.62643 5.07703 3.62643H2.30774C2.18533 3.62643 2.06793 3.67506 1.98138 3.76162C1.89482 3.84818 1.84619 3.96557 1.84619 4.08798V7.78036C1.84619 7.90277 1.89482 8.02017 1.98138 8.10673C2.06793 8.19328 2.18533 8.24191 2.30774 8.24191ZM2.76929 4.54953H4.61548V7.31882H2.76929V4.54953Z" fill="#555555"/>
</g>
<defs>
<clipPath id="clip0_10526_120618">
<rect width="12" height="12" fill="white"/>
</clipPath>
</defs>
</svg>
