<svg width="12" height="12" viewBox="0 0 12 12" fill="none" xmlns="http://www.w3.org/2000/svg">
<g clip-path="url(#clip0_10526_120616)">
<path d="M10.4924 0.775294C10.6867 0.775499 10.8728 0.852774 11.0101 0.990139C11.1474 1.12751 11.2246 1.31374 11.2247 1.50795V10.4924C11.2246 10.6867 11.1474 10.8729 11.0101 11.0103C10.8728 11.1476 10.6867 11.2249 10.4924 11.2251H1.50795C1.3137 11.2249 1.12747 11.1476 0.990116 11.0103C0.852761 10.8729 0.775499 10.6867 0.775294 10.4924V1.50795C0.775499 1.3137 0.852761 1.12747 0.990116 0.990116C1.12747 0.852761 1.3137 0.775499 1.50795 0.775294H10.4924ZM10.4924 0H1.50795C1.10802 0 0.72447 0.15888 0.441675 0.441675C0.15888 0.72447 0 1.10802 0 1.50795V10.4924C0 10.8924 0.15888 11.2759 0.441675 11.5587C0.72447 11.8415 1.10802 12.0004 1.50795 12.0004H10.4924C10.6905 12.0004 10.8865 11.9614 11.0695 11.8856C11.2524 11.8098 11.4186 11.6987 11.5586 11.5587C11.6986 11.4187 11.8096 11.2524 11.8854 11.0695C11.9611 10.8865 12 10.6905 12 10.4924V1.50795C12 1.30994 11.9611 1.11386 11.8854 0.930906C11.8096 0.747956 11.6986 0.581729 11.5586 0.441698C11.4186 0.301668 11.2524 0.190585 11.0695 0.114799C10.8865 0.0390126 10.6905 -6.54601e-09 10.4924 0Z" fill="#555555"/>
<path d="M8.96755 3.81644H2.92723C2.82442 3.81644 2.72581 3.7756 2.65312 3.70291C2.58042 3.63021 2.53958 3.5316 2.53958 3.42879C2.53958 3.32598 2.58042 3.22739 2.65312 3.15469C2.72581 3.08199 2.82442 3.04115 2.92723 3.04115H8.96755C9.07036 3.04115 9.16895 3.08199 9.24165 3.15469C9.31435 3.22739 9.35519 3.32598 9.35519 3.42879C9.35519 3.5316 9.31435 3.63021 9.24165 3.70291C9.16895 3.7756 9.07036 3.81644 8.96755 3.81644Z" fill="#555555"/>
<path d="M8.96755 6.41748H2.92723C2.82442 6.41748 2.72581 6.37665 2.65312 6.30395C2.58042 6.23125 2.53958 6.13265 2.53958 6.02983C2.53958 5.92702 2.58042 5.82843 2.65312 5.75573C2.72581 5.68303 2.82442 5.64219 2.92723 5.64219H8.96755C9.07036 5.64219 9.16895 5.68303 9.24165 5.75573C9.31435 5.82843 9.35519 5.92702 9.35519 6.02983C9.35519 6.13265 9.31435 6.23125 9.24165 6.30395C9.16895 6.37665 9.07036 6.41748 8.96755 6.41748Z" fill="#555555"/>
<path d="M8.96755 9.0193H2.92723C2.82442 9.0193 2.72581 8.97847 2.65312 8.90577C2.58042 8.83307 2.53958 8.73447 2.53958 8.63166C2.53958 8.52885 2.58042 8.43025 2.65312 8.35755C2.72581 8.28486 2.82442 8.24401 2.92723 8.24401H8.96755C9.07036 8.24401 9.16895 8.28486 9.24165 8.35755C9.31435 8.43025 9.35519 8.52885 9.35519 8.63166C9.35519 8.73447 9.31435 8.83307 9.24165 8.90577C9.16895 8.97847 9.07036 9.0193 8.96755 9.0193Z" fill="#555555"/>
</g>
<defs>
<clipPath id="clip0_10526_120616">
<rect width="12" height="12" fill="white"/>
</clipPath>
</defs>
</svg>
