<svg width="12" height="12" viewBox="0 0 12 12" fill="none" xmlns="http://www.w3.org/2000/svg">
<g clip-path="url(#clip0_10526_120620)">
<path d="M7.71444 1.7015C7.71444 1.27567 7.40907 0.931103 7.0152 0.878559L6.9352 0.871863C6.46794 0.856929 6.00026 0.853473 5.53286 0.860938L5.06518 0.871863C4.63361 0.885395 4.28595 1.24772 4.28595 1.7015V1.76599C5.42774 1.69655 6.57265 1.69655 7.71444 1.76599V1.7015ZM8.10987 2.65201C6.70551 2.54348 5.29487 2.54348 3.89052 2.65201C3.36809 2.69246 2.84696 2.74837 2.32782 2.81907L2.90757 10.3517L2.91744 10.4317C2.94936 10.6164 3.04134 10.7865 3.18001 10.9149C3.33848 11.0615 3.54667 11.1429 3.76258 11.1429H8.2378C8.45372 11.1429 8.6619 11.0615 8.82038 10.9149C8.97885 10.7682 9.07619 10.567 9.09281 10.3517L9.67221 2.81907C9.15318 2.74839 8.63218 2.69245 8.10987 2.65201ZM4.41811 3.85769C4.65459 3.84863 4.85377 4.03286 4.86288 4.26934L5.0606 9.41207C5.06969 9.64858 4.88512 9.84775 4.6486 9.85684C4.41218 9.86588 4.213 9.68161 4.20383 9.4452L4.00611 4.30247C3.99702 4.06595 4.1816 3.86679 4.41811 3.85769ZM7.58227 3.85769C7.81879 3.86679 8.00336 4.06595 7.99427 4.30247L7.79655 9.4452C7.78738 9.68161 7.58821 9.86589 7.35178 9.85684C7.11527 9.84775 6.93069 9.64858 6.93978 9.41207L7.1375 4.26934C7.14661 4.03286 7.3458 3.84863 7.58227 3.85769ZM8.57156 1.83154C9.11428 1.88133 9.65559 1.94637 10.1945 2.02785H10.1949C10.3929 2.05797 10.5902 2.0898 10.7877 2.12406C11.0208 2.16453 11.177 2.38644 11.1366 2.61959C11.0961 2.85279 10.8743 3.00932 10.6411 2.96885C10.6013 2.96195 10.5614 2.95548 10.5216 2.94876L9.94746 10.4176C9.91424 10.8482 9.71954 11.2502 9.4026 11.5436C9.10543 11.8186 8.72127 11.9794 8.31851 11.9982L8.2378 12H3.76258C3.33069 12.0001 2.91474 11.837 2.59778 11.5436C2.28085 11.2502 2.08614 10.8482 2.05292 10.4176L1.47845 2.94806C1.43876 2.95475 1.39902 2.96126 1.35933 2.96815C1.12615 3.00861 0.904306 2.8524 0.863803 2.61924C0.823338 2.38605 0.979536 2.1642 1.21271 2.12371C1.40991 2.08949 1.60727 2.05747 1.80586 2.02785C2.34479 1.94637 2.88611 1.88133 3.42883 1.83154V1.7015C3.42883 0.807927 4.12116 0.0442888 5.03804 0.015446L5.51912 0.00381567C6.00019 -0.00386862 6.4814 7.59363e-05 6.96234 0.015446L7.04763 0.0200277C7.92172 0.0918417 8.57156 0.835175 8.57156 1.7015V1.83154Z" fill="#555555"/>
</g>
<defs>
<clipPath id="clip0_10526_120620">
<rect width="12" height="12" fill="white"/>
</clipPath>
</defs>
</svg>
